<svg width="701" height="64" viewBox="0 0 701 64" fill="none" xmlns="http://www.w3.org/2000/svg">
<path d="M41.599 1.66407V8.17607H24.879V63.0001H16.871V8.17607H0.0629883V1.66407H41.599Z" fill="black"/>
<path d="M107.512 1.66407V63.0001H99.5044V35.1921H68.2644V63.0001H60.2564V1.66407H68.2644V28.5921H99.5044V1.66407H107.512Z" fill="black"/>
<path d="M137.994 8.17607V28.6801H160.346V35.2801H137.994V56.4001H162.986V63.0001H129.986V1.57607H162.986V8.17607H137.994Z" fill="black"/>
<path d="M213.172 32.2881C213.172 26.3041 214.522 20.9361 217.22 16.1841C219.919 11.3734 223.586 7.61874 228.22 4.92007C232.914 2.2214 238.106 0.87207 243.796 0.87207C250.484 0.87207 256.321 2.4854 261.308 5.71207C266.295 8.93874 269.932 13.5147 272.22 19.4401H262.628C260.927 15.7441 258.463 12.8987 255.236 10.9041C252.068 8.9094 248.255 7.91207 243.796 7.91207C239.514 7.91207 235.671 8.9094 232.268 10.9041C228.866 12.8987 226.196 15.7441 224.26 19.4401C222.324 23.0774 221.356 27.3601 221.356 32.2881C221.356 37.1574 222.324 41.4401 224.26 45.1361C226.196 48.7734 228.866 51.5894 232.268 53.5841C235.671 55.5787 239.514 56.5761 243.796 56.5761C248.255 56.5761 252.068 55.6081 255.236 53.6721C258.463 51.6774 260.927 48.8321 262.628 45.1361H272.22C269.932 51.0027 266.295 55.5494 261.308 58.7761C256.321 61.9441 250.484 63.5281 243.796 63.5281C238.106 63.5281 232.914 62.2081 228.22 59.5681C223.586 56.8694 219.919 53.1441 217.22 48.3921C214.522 43.6401 213.172 38.2721 213.172 32.2881Z" fill="black"/>
<path d="M320.749 63.6161C315.058 63.6161 309.866 62.2961 305.173 59.6561C300.479 56.9574 296.754 53.2321 293.997 48.4801C291.298 43.6694 289.949 38.2721 289.949 32.2881C289.949 26.3041 291.298 20.9361 293.997 16.1841C296.754 11.3734 300.479 7.64807 305.173 5.00807C309.866 2.3094 315.058 0.960069 320.749 0.960069C326.498 0.960069 331.719 2.3094 336.413 5.00807C341.106 7.64807 344.802 11.3441 347.501 16.0961C350.199 20.8481 351.549 26.2454 351.549 32.2881C351.549 38.3307 350.199 43.7281 347.501 48.4801C344.802 53.2321 341.106 56.9574 336.413 59.6561C331.719 62.2961 326.498 63.6161 320.749 63.6161ZM320.749 56.6641C325.031 56.6641 328.874 55.6667 332.277 53.6721C335.738 51.6774 338.437 48.8321 340.373 45.1361C342.367 41.4401 343.365 37.1574 343.365 32.2881C343.365 27.3601 342.367 23.0774 340.373 19.4401C338.437 15.7441 335.767 12.8987 332.365 10.9041C328.962 8.9094 325.09 7.91207 320.749 7.91207C316.407 7.91207 312.535 8.9094 309.133 10.9041C305.73 12.8987 303.031 15.7441 301.037 19.4401C299.101 23.0774 298.133 27.3601 298.133 32.2881C298.133 37.1574 299.101 41.4401 301.037 45.1361C303.031 48.8321 305.73 51.6774 309.133 53.6721C312.594 55.6667 316.466 56.6641 320.749 56.6641Z" fill="black"/>
<path d="M378.928 56.4881H400.4V63.0001H370.92V1.66407H378.928V56.4881Z" fill="black"/>
<path d="M445.513 63.6161C439.822 63.6161 434.63 62.2961 429.937 59.6561C425.243 56.9574 421.518 53.2321 418.761 48.4801C416.062 43.6694 414.713 38.2721 414.713 32.2881C414.713 26.3041 416.062 20.9361 418.761 16.1841C421.518 11.3734 425.243 7.64807 429.937 5.00807C434.63 2.3094 439.822 0.960069 445.513 0.960069C451.262 0.960069 456.483 2.3094 461.177 5.00807C465.87 7.64807 469.566 11.3441 472.265 16.0961C474.963 20.8481 476.313 26.2454 476.313 32.2881C476.313 38.3307 474.963 43.7281 472.265 48.4801C469.566 53.2321 465.87 56.9574 461.177 59.6561C456.483 62.2961 451.262 63.6161 445.513 63.6161ZM445.513 56.6641C449.795 56.6641 453.638 55.6667 457.041 53.6721C460.502 51.6774 463.201 48.8321 465.137 45.1361C467.131 41.4401 468.129 37.1574 468.129 32.2881C468.129 27.3601 467.131 23.0774 465.137 19.4401C463.201 15.7441 460.531 12.8987 457.129 10.9041C453.726 8.9094 449.854 7.91207 445.513 7.91207C441.171 7.91207 437.299 8.9094 433.897 10.9041C430.494 12.8987 427.795 15.7441 425.801 19.4401C423.865 23.0774 422.897 27.3601 422.897 32.2881C422.897 37.1574 423.865 41.4401 425.801 45.1361C427.795 48.8321 430.494 51.6774 433.897 53.6721C437.358 55.6667 441.23 56.6641 445.513 56.6641Z" fill="black"/>
<path d="M527.98 63.0001L513.372 37.9201H503.692V63.0001H495.684V1.66407H515.484C520.119 1.66407 524.02 2.45607 527.188 4.04007C530.415 5.62407 532.82 7.76541 534.404 10.4641C535.988 13.1627 536.78 16.2427 536.78 19.7041C536.78 23.9281 535.548 27.6534 533.084 30.8801C530.679 34.1067 527.042 36.2481 522.172 37.3041L537.573 63.0001H527.98ZM503.692 31.4961H515.484C519.826 31.4961 523.082 30.4401 525.253 28.3281C527.423 26.1574 528.508 23.2827 528.508 19.7041C528.508 16.0667 527.423 13.2507 525.253 11.2561C523.141 9.2614 519.884 8.26407 515.484 8.26407H503.692V31.4961Z" fill="black"/>
<path d="M577.472 63.6161C573.424 63.6161 569.786 62.9121 566.56 61.5041C563.392 60.0374 560.898 58.0427 559.08 55.5201C557.261 52.9387 556.322 49.9761 556.264 46.6321H564.8C565.093 49.5067 566.266 51.9414 568.32 53.9361C570.432 55.8721 573.482 56.8401 577.472 56.8401C581.285 56.8401 584.277 55.9014 586.448 54.0241C588.677 52.0881 589.792 49.6241 589.792 46.6321C589.792 44.2854 589.146 42.3787 587.856 40.9121C586.565 39.4454 584.952 38.3307 583.016 37.5681C581.08 36.8054 578.469 35.9841 575.184 35.1041C571.136 34.0481 567.88 32.9921 565.416 31.9361C563.01 30.8801 560.928 29.2374 559.168 27.0081C557.466 24.7201 556.616 21.6694 556.616 17.8561C556.616 14.5121 557.466 11.5494 559.168 8.96807C560.869 6.38674 563.245 4.39207 566.296 2.98407C569.405 1.57607 572.954 0.87207 576.944 0.87207C582.693 0.87207 587.386 2.3094 591.024 5.18407C594.72 8.05874 596.802 11.8721 597.272 16.6241H588.472C588.178 14.2774 586.946 12.2241 584.776 10.4641C582.605 8.64541 579.73 7.73607 576.152 7.73607C572.808 7.73607 570.08 8.61607 567.968 10.3761C565.856 12.0774 564.8 14.4827 564.8 17.5921C564.8 19.8214 565.416 21.6401 566.648 23.0481C567.938 24.4561 569.493 25.5414 571.312 26.3041C573.189 27.0081 575.8 27.8294 579.144 28.7681C583.192 29.8827 586.448 30.9974 588.912 32.1121C591.376 33.1681 593.488 34.8401 595.248 37.1281C597.008 39.3574 597.888 42.4081 597.888 46.2801C597.888 49.2721 597.096 52.0881 595.512 54.7281C593.928 57.3681 591.581 59.5094 588.472 61.1521C585.362 62.7947 581.696 63.6161 577.472 63.6161Z" fill="black"/>
<path d="M628.856 1.66407L627.888 45.6641H621.2L620.232 1.66407H628.856ZM624.896 63.5281C623.371 63.5281 622.08 63.0001 621.024 61.9441C619.968 60.8881 619.44 59.5974 619.44 58.0721C619.44 56.5467 619.968 55.2561 621.024 54.2001C622.08 53.1441 623.371 52.6161 624.896 52.6161C626.363 52.6161 627.595 53.1441 628.592 54.2001C629.648 55.2561 630.176 56.5467 630.176 58.0721C630.176 59.5974 629.648 60.8881 628.592 61.9441C627.595 63.0001 626.363 63.5281 624.896 63.5281Z" fill="black"/>
<path d="M663.867 1.66407L662.899 45.6641H656.211L655.243 1.66407H663.867ZM659.907 63.5281C658.382 63.5281 657.091 63.0001 656.035 61.9441C654.979 60.8881 654.451 59.5974 654.451 58.0721C654.451 56.5467 654.979 55.2561 656.035 54.2001C657.091 53.1441 658.382 52.6161 659.907 52.6161C661.374 52.6161 662.606 53.1441 663.603 54.2001C664.659 55.2561 665.187 56.5467 665.187 58.0721C665.187 59.5974 664.659 60.8881 663.603 61.9441C662.606 63.0001 661.374 63.5281 659.907 63.5281Z" fill="black"/>
<path d="M698.878 1.66407L697.91 45.6641H691.222L690.254 1.66407H698.878ZM694.918 63.5281C693.393 63.5281 692.102 63.0001 691.046 61.9441C689.99 60.8881 689.462 59.5974 689.462 58.0721C689.462 56.5467 689.99 55.2561 691.046 54.2001C692.102 53.1441 693.393 52.6161 694.918 52.6161C696.385 52.6161 697.616 53.1441 698.614 54.2001C699.67 55.2561 700.198 56.5467 700.198 58.0721C700.198 59.5974 699.67 60.8881 698.614 61.9441C697.616 63.0001 696.385 63.5281 694.918 63.5281Z" fill="black"/>
</svg>
